<svg xmlns="http://www.w3.org/2000/svg" viewBox="0 0 24 24" fill="currentColor">
  <!-- Row 1 -->
  <rect x="1" y="1" width="4.5" height="4.5" rx="0.5" opacity="0.25"/>
  <rect x="6.5" y="1" width="4.5" height="4.5" rx="0.5" opacity="1"/>
  <rect x="12" y="1" width="4.5" height="4.5" rx="0.5" opacity="0.25"/>
  <rect x="17.5" y="1" width="4.5" height="4.5" rx="0.5" opacity="0.25"/>

  <!-- Row 2 -->
  <rect x="1" y="6.5" width="4.5" height="4.5" rx="0.5" opacity="1"/>
  <rect x="6.5" y="6.5" width="4.5" height="4.5" rx="0.5" opacity="1"/>
  <rect x="12" y="6.5" width="4.5" height="4.5" rx="0.5" opacity="0.25"/>
  <rect x="17.5" y="6.5" width="4.5" height="4.5" rx="0.5" opacity="0.25"/>

  <!-- Row 3 -->
  <rect x="1" y="12" width="4.5" height="4.5" rx="0.5" opacity="1"/>
  <rect x="6.5" y="12" width="4.5" height="4.5" rx="0.5" opacity="1"/>
  <rect x="12" y="12" width="4.5" height="4.5" rx="0.5" opacity="0.25"/>
  <rect x="17.5" y="12" width="4.5" height="4.5" rx="0.5" opacity="1"/>

  <!-- Row 4 -->
  <rect x="1" y="17.5" width="4.5" height="4.5" rx="0.5" opacity="1"/>
  <rect x="6.5" y="17.5" width="4.5" height="4.5" rx="0.5" opacity="1"/>
  <rect x="12" y="17.5" width="4.5" height="4.5" rx="0.5" opacity="1"/>
  <rect x="17.5" y="17.5" width="4.5" height="4.5" rx="0.5" opacity="1"/>
</svg>